<?xml version="1.0" encoding="utf-8" standalone="no"?>
<!DOCTYPE svg PUBLIC "-//W3C//DTD SVG 1.1//EN"
  "http://www.w3.org/Graphics/SVG/1.1/DTD/svg11.dtd">
<!-- Created with matplotlib (https://matplotlib.org/) -->
<svg height="216pt" version="1.1" viewBox="0 0 288 216" width="288pt" xmlns="http://www.w3.org/2000/svg" xmlns:xlink="http://www.w3.org/1999/xlink">
 <defs>
  <style type="text/css">
*{stroke-linecap:butt;stroke-linejoin:round;}
  </style>
 </defs>
 <g id="figure_1">
  <g id="patch_1">
   <path d="M 0 216 
L 288 216 
L 288 0 
L 0 0 
z
" style="fill:#ffffff;"/>
  </g>
  <g id="axes_1">
   <g id="matplotlib.axis_1">
    <g id="xtick_1">
     <g id="text_1">
      <!-- 1 -->
      <defs>
       <path d="M 37.25 0 
L 28.46875 0 
L 28.46875 56 
Q 25.296875 52.984375 20.140625 49.953125 
Q 14.984375 46.921875 10.890625 45.40625 
L 10.890625 53.90625 
Q 18.265625 57.375 23.78125 62.296875 
Q 29.296875 67.234375 31.59375 71.875 
L 37.25 71.875 
z
" id="ArialMT-49"/>
      </defs>
      <g style="fill:#262626;" transform="translate(70.26867 210.310391)scale(0.165 -0.165)">
       <use xlink:href="#ArialMT-49"/>
      </g>
     </g>
    </g>
    <g id="xtick_2">
     <g id="text_2">
      <!-- 15 -->
      <defs>
       <path d="M 4.15625 18.75 
L 13.375 19.53125 
Q 14.40625 12.796875 18.140625 9.390625 
Q 21.875 6 27.15625 6 
Q 33.5 6 37.890625 10.78125 
Q 42.28125 15.578125 42.28125 23.484375 
Q 42.28125 31 38.0625 35.34375 
Q 33.84375 39.703125 27 39.703125 
Q 22.75 39.703125 19.328125 37.765625 
Q 15.921875 35.84375 13.96875 32.765625 
L 5.71875 33.84375 
L 12.640625 70.609375 
L 48.25 70.609375 
L 48.25 62.203125 
L 19.671875 62.203125 
L 15.828125 42.96875 
Q 22.265625 47.46875 29.34375 47.46875 
Q 38.71875 47.46875 45.15625 40.96875 
Q 51.609375 34.46875 51.609375 24.265625 
Q 51.609375 14.546875 45.953125 7.46875 
Q 39.0625 -1.21875 27.15625 -1.21875 
Q 17.390625 -1.21875 11.203125 4.25 
Q 5.03125 9.71875 4.15625 18.75 
z
" id="ArialMT-53"/>
      </defs>
      <g style="fill:#262626;" transform="translate(135.916055 210.310391)scale(0.165 -0.165)">
       <use xlink:href="#ArialMT-49"/>
       <use x="55.615234" xlink:href="#ArialMT-53"/>
      </g>
     </g>
    </g>
    <g id="xtick_3">
     <g id="text_3">
      <!-- 30 -->
      <defs>
       <path d="M 4.203125 18.890625 
L 12.984375 20.0625 
Q 14.5 12.59375 18.140625 9.296875 
Q 21.78125 6 27 6 
Q 33.203125 6 37.46875 10.296875 
Q 41.75 14.59375 41.75 20.953125 
Q 41.75 27 37.796875 30.921875 
Q 33.84375 34.859375 27.734375 34.859375 
Q 25.25 34.859375 21.53125 33.890625 
L 22.515625 41.609375 
Q 23.390625 41.5 23.921875 41.5 
Q 29.546875 41.5 34.03125 44.421875 
Q 38.53125 47.359375 38.53125 53.46875 
Q 38.53125 58.296875 35.25 61.46875 
Q 31.984375 64.65625 26.8125 64.65625 
Q 21.6875 64.65625 18.265625 61.421875 
Q 14.84375 58.203125 13.875 51.765625 
L 5.078125 53.328125 
Q 6.6875 62.15625 12.390625 67.015625 
Q 18.109375 71.875 26.609375 71.875 
Q 32.46875 71.875 37.390625 69.359375 
Q 42.328125 66.84375 44.9375 62.5 
Q 47.5625 58.15625 47.5625 53.265625 
Q 47.5625 48.640625 45.0625 44.828125 
Q 42.578125 41.015625 37.703125 38.765625 
Q 44.046875 37.3125 47.5625 32.6875 
Q 51.078125 28.078125 51.078125 21.140625 
Q 51.078125 11.765625 44.234375 5.25 
Q 37.40625 -1.265625 26.953125 -1.265625 
Q 17.53125 -1.265625 11.296875 4.34375 
Q 5.078125 9.96875 4.203125 18.890625 
z
" id="ArialMT-51"/>
       <path d="M 4.15625 35.296875 
Q 4.15625 48 6.765625 55.734375 
Q 9.375 63.484375 14.515625 67.671875 
Q 19.671875 71.875 27.484375 71.875 
Q 33.25 71.875 37.59375 69.546875 
Q 41.9375 67.234375 44.765625 62.859375 
Q 47.609375 58.5 49.21875 52.21875 
Q 50.828125 45.953125 50.828125 35.296875 
Q 50.828125 22.703125 48.234375 14.96875 
Q 45.65625 7.234375 40.5 3 
Q 35.359375 -1.21875 27.484375 -1.21875 
Q 17.140625 -1.21875 11.234375 6.203125 
Q 4.15625 15.140625 4.15625 35.296875 
z
M 13.1875 35.296875 
Q 13.1875 17.671875 17.3125 11.828125 
Q 21.4375 6 27.484375 6 
Q 33.546875 6 37.671875 11.859375 
Q 41.796875 17.71875 41.796875 35.296875 
Q 41.796875 52.984375 37.671875 58.78125 
Q 33.546875 64.59375 27.390625 64.59375 
Q 21.34375 64.59375 17.71875 59.46875 
Q 13.1875 52.9375 13.1875 35.296875 
z
" id="ArialMT-48"/>
      </defs>
      <g style="fill:#262626;" transform="translate(211.168009 210.310391)scale(0.165 -0.165)">
       <use xlink:href="#ArialMT-51"/>
       <use x="55.615234" xlink:href="#ArialMT-48"/>
      </g>
     </g>
    </g>
    <g id="text_4">
     <!-- totalScannedLineItems -->
     <defs>
      <path d="M 25.78125 7.859375 
L 27.046875 0.09375 
Q 23.34375 -0.6875 20.40625 -0.6875 
Q 15.625 -0.6875 12.984375 0.828125 
Q 10.359375 2.34375 9.28125 4.8125 
Q 8.203125 7.28125 8.203125 15.1875 
L 8.203125 45.015625 
L 1.765625 45.015625 
L 1.765625 51.859375 
L 8.203125 51.859375 
L 8.203125 64.703125 
L 16.9375 69.96875 
L 16.9375 51.859375 
L 25.78125 51.859375 
L 25.78125 45.015625 
L 16.9375 45.015625 
L 16.9375 14.703125 
Q 16.9375 10.9375 17.40625 9.859375 
Q 17.875 8.796875 18.921875 8.15625 
Q 19.96875 7.515625 21.921875 7.515625 
Q 23.390625 7.515625 25.78125 7.859375 
z
" id="ArialMT-116"/>
      <path d="M 3.328125 25.921875 
Q 3.328125 40.328125 11.328125 47.265625 
Q 18.015625 53.03125 27.640625 53.03125 
Q 38.328125 53.03125 45.109375 46.015625 
Q 51.90625 39.015625 51.90625 26.65625 
Q 51.90625 16.65625 48.90625 10.90625 
Q 45.90625 5.171875 40.15625 2 
Q 34.421875 -1.171875 27.640625 -1.171875 
Q 16.75 -1.171875 10.03125 5.8125 
Q 3.328125 12.796875 3.328125 25.921875 
z
M 12.359375 25.921875 
Q 12.359375 15.96875 16.703125 11.015625 
Q 21.046875 6.0625 27.640625 6.0625 
Q 34.1875 6.0625 38.53125 11.03125 
Q 42.875 16.015625 42.875 26.21875 
Q 42.875 35.84375 38.5 40.796875 
Q 34.125 45.75 27.640625 45.75 
Q 21.046875 45.75 16.703125 40.8125 
Q 12.359375 35.890625 12.359375 25.921875 
z
" id="ArialMT-111"/>
      <path d="M 40.4375 6.390625 
Q 35.546875 2.25 31.03125 0.53125 
Q 26.515625 -1.171875 21.34375 -1.171875 
Q 12.796875 -1.171875 8.203125 3 
Q 3.609375 7.171875 3.609375 13.671875 
Q 3.609375 17.484375 5.34375 20.625 
Q 7.078125 23.78125 9.890625 25.6875 
Q 12.703125 27.59375 16.21875 28.5625 
Q 18.796875 29.25 24.03125 29.890625 
Q 34.671875 31.15625 39.703125 32.90625 
Q 39.75 34.71875 39.75 35.203125 
Q 39.75 40.578125 37.25 42.78125 
Q 33.890625 45.75 27.25 45.75 
Q 21.046875 45.75 18.09375 43.578125 
Q 15.140625 41.40625 13.71875 35.890625 
L 5.125 37.0625 
Q 6.296875 42.578125 8.984375 45.96875 
Q 11.671875 49.359375 16.75 51.1875 
Q 21.828125 53.03125 28.515625 53.03125 
Q 35.15625 53.03125 39.296875 51.46875 
Q 43.453125 49.90625 45.40625 47.53125 
Q 47.359375 45.171875 48.140625 41.546875 
Q 48.578125 39.3125 48.578125 33.453125 
L 48.578125 21.734375 
Q 48.578125 9.46875 49.140625 6.21875 
Q 49.703125 2.984375 51.375 0 
L 42.1875 0 
Q 40.828125 2.734375 40.4375 6.390625 
z
M 39.703125 26.03125 
Q 34.90625 24.078125 25.34375 22.703125 
Q 19.921875 21.921875 17.671875 20.9375 
Q 15.4375 19.96875 14.203125 18.09375 
Q 12.984375 16.21875 12.984375 13.921875 
Q 12.984375 10.40625 15.640625 8.0625 
Q 18.3125 5.71875 23.4375 5.71875 
Q 28.515625 5.71875 32.46875 7.9375 
Q 36.421875 10.15625 38.28125 14.015625 
Q 39.703125 17 39.703125 22.796875 
z
" id="ArialMT-97"/>
      <path d="M 6.390625 0 
L 6.390625 71.578125 
L 15.1875 71.578125 
L 15.1875 0 
z
" id="ArialMT-108"/>
      <path d="M 4.5 23 
L 13.421875 23.78125 
Q 14.0625 18.40625 16.375 14.96875 
Q 18.703125 11.53125 23.578125 9.40625 
Q 28.46875 7.28125 34.578125 7.28125 
Q 39.984375 7.28125 44.140625 8.890625 
Q 48.296875 10.5 50.3125 13.296875 
Q 52.34375 16.109375 52.34375 19.4375 
Q 52.34375 22.796875 50.390625 25.3125 
Q 48.4375 27.828125 43.953125 29.546875 
Q 41.0625 30.671875 31.203125 33.03125 
Q 21.34375 35.40625 17.390625 37.5 
Q 12.25 40.1875 9.734375 44.15625 
Q 7.234375 48.140625 7.234375 53.078125 
Q 7.234375 58.5 10.296875 63.203125 
Q 13.375 67.921875 19.28125 70.359375 
Q 25.203125 72.796875 32.421875 72.796875 
Q 40.375 72.796875 46.453125 70.234375 
Q 52.546875 67.671875 55.8125 62.6875 
Q 59.078125 57.71875 59.328125 51.421875 
L 50.25 50.734375 
Q 49.515625 57.515625 45.28125 60.984375 
Q 41.0625 64.453125 32.8125 64.453125 
Q 24.21875 64.453125 20.28125 61.296875 
Q 16.359375 58.15625 16.359375 53.71875 
Q 16.359375 49.859375 19.140625 47.359375 
Q 21.875 44.875 33.421875 42.265625 
Q 44.96875 39.65625 49.265625 37.703125 
Q 55.515625 34.8125 58.484375 30.390625 
Q 61.46875 25.984375 61.46875 20.21875 
Q 61.46875 14.5 58.203125 9.4375 
Q 54.9375 4.390625 48.796875 1.578125 
Q 42.671875 -1.21875 35.015625 -1.21875 
Q 25.296875 -1.21875 18.71875 1.609375 
Q 12.15625 4.4375 8.421875 10.125 
Q 4.6875 15.828125 4.5 23 
z
" id="ArialMT-83"/>
      <path d="M 40.4375 19 
L 49.078125 17.875 
Q 47.65625 8.9375 41.8125 3.875 
Q 35.984375 -1.171875 27.484375 -1.171875 
Q 16.84375 -1.171875 10.375 5.78125 
Q 3.90625 12.75 3.90625 25.734375 
Q 3.90625 34.125 6.6875 40.421875 
Q 9.46875 46.734375 15.15625 49.875 
Q 20.84375 53.03125 27.546875 53.03125 
Q 35.984375 53.03125 41.359375 48.75 
Q 46.734375 44.484375 48.25 36.625 
L 39.703125 35.296875 
Q 38.484375 40.53125 35.375 43.15625 
Q 32.28125 45.796875 27.875 45.796875 
Q 21.234375 45.796875 17.078125 41.03125 
Q 12.9375 36.28125 12.9375 25.984375 
Q 12.9375 15.53125 16.9375 10.796875 
Q 20.953125 6.0625 27.390625 6.0625 
Q 32.5625 6.0625 36.03125 9.234375 
Q 39.5 12.40625 40.4375 19 
z
" id="ArialMT-99"/>
      <path d="M 6.59375 0 
L 6.59375 51.859375 
L 14.5 51.859375 
L 14.5 44.484375 
Q 20.21875 53.03125 31 53.03125 
Q 35.6875 53.03125 39.625 51.34375 
Q 43.5625 49.65625 45.515625 46.921875 
Q 47.46875 44.1875 48.25 40.4375 
Q 48.734375 37.984375 48.734375 31.890625 
L 48.734375 0 
L 39.9375 0 
L 39.9375 31.546875 
Q 39.9375 36.921875 38.90625 39.578125 
Q 37.890625 42.234375 35.28125 43.8125 
Q 32.671875 45.40625 29.15625 45.40625 
Q 23.53125 45.40625 19.453125 41.84375 
Q 15.375 38.28125 15.375 28.328125 
L 15.375 0 
z
" id="ArialMT-110"/>
      <path d="M 42.09375 16.703125 
L 51.171875 15.578125 
Q 49.03125 7.625 43.21875 3.21875 
Q 37.40625 -1.171875 28.375 -1.171875 
Q 17 -1.171875 10.328125 5.828125 
Q 3.65625 12.84375 3.65625 25.484375 
Q 3.65625 38.578125 10.390625 45.796875 
Q 17.140625 53.03125 27.875 53.03125 
Q 38.28125 53.03125 44.875 45.953125 
Q 51.46875 38.875 51.46875 26.03125 
Q 51.46875 25.25 51.421875 23.6875 
L 12.75 23.6875 
Q 13.234375 15.140625 17.578125 10.59375 
Q 21.921875 6.0625 28.421875 6.0625 
Q 33.25 6.0625 36.671875 8.59375 
Q 40.09375 11.140625 42.09375 16.703125 
z
M 13.234375 30.90625 
L 42.1875 30.90625 
Q 41.609375 37.453125 38.875 40.71875 
Q 34.671875 45.796875 27.984375 45.796875 
Q 21.921875 45.796875 17.796875 41.75 
Q 13.671875 37.703125 13.234375 30.90625 
z
" id="ArialMT-101"/>
      <path d="M 40.234375 0 
L 40.234375 6.546875 
Q 35.296875 -1.171875 25.734375 -1.171875 
Q 19.53125 -1.171875 14.328125 2.25 
Q 9.125 5.671875 6.265625 11.796875 
Q 3.421875 17.921875 3.421875 25.875 
Q 3.421875 33.640625 6 39.96875 
Q 8.59375 46.296875 13.765625 49.65625 
Q 18.953125 53.03125 25.34375 53.03125 
Q 30.03125 53.03125 33.6875 51.046875 
Q 37.359375 49.078125 39.65625 45.90625 
L 39.65625 71.578125 
L 48.390625 71.578125 
L 48.390625 0 
z
M 12.453125 25.875 
Q 12.453125 15.921875 16.640625 10.984375 
Q 20.84375 6.0625 26.5625 6.0625 
Q 32.328125 6.0625 36.34375 10.765625 
Q 40.375 15.484375 40.375 25.140625 
Q 40.375 35.796875 36.265625 40.765625 
Q 32.171875 45.75 26.171875 45.75 
Q 20.3125 45.75 16.375 40.96875 
Q 12.453125 36.1875 12.453125 25.875 
z
" id="ArialMT-100"/>
      <path d="M 7.328125 0 
L 7.328125 71.578125 
L 16.796875 71.578125 
L 16.796875 8.453125 
L 52.046875 8.453125 
L 52.046875 0 
z
" id="ArialMT-76"/>
      <path d="M 6.640625 61.46875 
L 6.640625 71.578125 
L 15.4375 71.578125 
L 15.4375 61.46875 
z
M 6.640625 0 
L 6.640625 51.859375 
L 15.4375 51.859375 
L 15.4375 0 
z
" id="ArialMT-105"/>
      <path d="M 9.328125 0 
L 9.328125 71.578125 
L 18.796875 71.578125 
L 18.796875 0 
z
" id="ArialMT-73"/>
      <path d="M 6.59375 0 
L 6.59375 51.859375 
L 14.453125 51.859375 
L 14.453125 44.578125 
Q 16.890625 48.390625 20.9375 50.703125 
Q 25 53.03125 30.171875 53.03125 
Q 35.9375 53.03125 39.625 50.640625 
Q 43.3125 48.25 44.828125 43.953125 
Q 50.984375 53.03125 60.84375 53.03125 
Q 68.5625 53.03125 72.703125 48.75 
Q 76.859375 44.484375 76.859375 35.59375 
L 76.859375 0 
L 68.109375 0 
L 68.109375 32.671875 
Q 68.109375 37.9375 67.25 40.25 
Q 66.40625 42.578125 64.15625 43.984375 
Q 61.921875 45.40625 58.890625 45.40625 
Q 53.421875 45.40625 49.796875 41.765625 
Q 46.1875 38.140625 46.1875 30.125 
L 46.1875 0 
L 37.40625 0 
L 37.40625 33.6875 
Q 37.40625 39.546875 35.25 42.46875 
Q 33.109375 45.40625 28.21875 45.40625 
Q 24.515625 45.40625 21.359375 43.453125 
Q 18.21875 41.5 16.796875 37.734375 
Q 15.375 33.984375 15.375 26.90625 
L 15.375 0 
z
" id="ArialMT-109"/>
      <path d="M 3.078125 15.484375 
L 11.765625 16.84375 
Q 12.5 11.625 15.84375 8.84375 
Q 19.1875 6.0625 25.203125 6.0625 
Q 31.25 6.0625 34.171875 8.515625 
Q 37.109375 10.984375 37.109375 14.3125 
Q 37.109375 17.28125 34.515625 19 
Q 32.71875 20.171875 25.53125 21.96875 
Q 15.875 24.421875 12.140625 26.203125 
Q 8.40625 27.984375 6.46875 31.125 
Q 4.546875 34.28125 4.546875 38.09375 
Q 4.546875 41.546875 6.125 44.5 
Q 7.71875 47.46875 10.453125 49.421875 
Q 12.5 50.921875 16.03125 51.96875 
Q 19.578125 53.03125 23.640625 53.03125 
Q 29.734375 53.03125 34.34375 51.265625 
Q 38.96875 49.515625 41.15625 46.5 
Q 43.359375 43.5 44.1875 38.484375 
L 35.59375 37.3125 
Q 35.015625 41.3125 32.203125 43.546875 
Q 29.390625 45.796875 24.265625 45.796875 
Q 18.21875 45.796875 15.625 43.796875 
Q 13.03125 41.796875 13.03125 39.109375 
Q 13.03125 37.40625 14.109375 36.03125 
Q 15.1875 34.625 17.484375 33.6875 
Q 18.796875 33.203125 25.25 31.453125 
Q 34.578125 28.953125 38.25 27.359375 
Q 41.9375 25.78125 44.03125 22.75 
Q 46.140625 19.734375 46.140625 15.234375 
Q 46.140625 10.84375 43.578125 6.953125 
Q 41.015625 3.078125 36.171875 0.953125 
Q 31.34375 -1.171875 25.25 -1.171875 
Q 15.140625 -1.171875 9.84375 3.03125 
Q 4.546875 7.234375 3.078125 15.484375 
z
" id="ArialMT-115"/>
     </defs>
     <g style="fill:#262626;" transform="translate(45.873437 231.905391)scale(0.2 -0.2)">
      <use xlink:href="#ArialMT-116"/>
      <use x="27.783203" xlink:href="#ArialMT-111"/>
      <use x="83.398438" xlink:href="#ArialMT-116"/>
      <use x="111.181641" xlink:href="#ArialMT-97"/>
      <use x="166.796875" xlink:href="#ArialMT-108"/>
      <use x="189.013672" xlink:href="#ArialMT-83"/>
      <use x="255.712891" xlink:href="#ArialMT-99"/>
      <use x="305.712891" xlink:href="#ArialMT-97"/>
      <use x="361.328125" xlink:href="#ArialMT-110"/>
      <use x="416.943359" xlink:href="#ArialMT-110"/>
      <use x="472.558594" xlink:href="#ArialMT-101"/>
      <use x="528.173828" xlink:href="#ArialMT-100"/>
      <use x="583.789062" xlink:href="#ArialMT-76"/>
      <use x="639.404297" xlink:href="#ArialMT-105"/>
      <use x="661.621094" xlink:href="#ArialMT-110"/>
      <use x="717.236328" xlink:href="#ArialMT-101"/>
      <use x="772.851562" xlink:href="#ArialMT-73"/>
      <use x="800.634766" xlink:href="#ArialMT-116"/>
      <use x="828.417969" xlink:href="#ArialMT-101"/>
      <use x="884.033203" xlink:href="#ArialMT-109"/>
      <use x="967.333984" xlink:href="#ArialMT-115"/>
     </g>
    </g>
   </g>
   <g id="matplotlib.axis_2">
    <g id="ytick_1">
     <g id="text_5">
      <!-- 0% -->
      <defs>
       <path d="M 5.8125 54.390625 
Q 5.8125 62.0625 9.671875 67.421875 
Q 13.53125 72.796875 20.84375 72.796875 
Q 27.59375 72.796875 32 67.984375 
Q 36.421875 63.1875 36.421875 53.859375 
Q 36.421875 44.78125 31.953125 39.875 
Q 27.484375 34.96875 20.953125 34.96875 
Q 14.453125 34.96875 10.125 39.796875 
Q 5.8125 44.625 5.8125 54.390625 
z
M 21.09375 66.75 
Q 17.828125 66.75 15.65625 63.90625 
Q 13.484375 61.078125 13.484375 53.515625 
Q 13.484375 46.625 15.671875 43.8125 
Q 17.875 41.015625 21.09375 41.015625 
Q 24.421875 41.015625 26.59375 43.84375 
Q 28.765625 46.6875 28.765625 54.203125 
Q 28.765625 61.140625 26.5625 63.9375 
Q 24.359375 66.75 21.09375 66.75 
z
M 21.140625 -2.640625 
L 60.296875 72.796875 
L 67.4375 72.796875 
L 28.421875 -2.640625 
z
M 52.09375 16.796875 
Q 52.09375 24.515625 55.953125 29.859375 
Q 59.8125 35.203125 67.1875 35.203125 
Q 73.921875 35.203125 78.34375 30.390625 
Q 82.765625 25.59375 82.765625 16.265625 
Q 82.765625 7.171875 78.296875 2.265625 
Q 73.828125 -2.640625 67.234375 -2.640625 
Q 60.75 -2.640625 56.421875 2.21875 
Q 52.09375 7.078125 52.09375 16.796875 
z
M 67.4375 29.15625 
Q 64.109375 29.15625 61.9375 26.3125 
Q 59.765625 23.484375 59.765625 15.921875 
Q 59.765625 9.078125 61.953125 6.25 
Q 64.15625 3.421875 67.390625 3.421875 
Q 70.75 3.421875 72.921875 6.25 
Q 75.09375 9.078125 75.09375 16.609375 
Q 75.09375 23.53125 72.890625 26.34375 
Q 70.703125 29.15625 67.4375 29.15625 
z
" id="ArialMT-37"/>
      </defs>
      <g style="fill:#262626;" transform="translate(2.652344 194.905195)scale(0.165 -0.165)">
       <use xlink:href="#ArialMT-48"/>
       <use x="55.615234" xlink:href="#ArialMT-37"/>
      </g>
     </g>
    </g>
    <g id="ytick_2">
     <g id="text_6">
      <!-- 5% -->
      <g style="fill:#262626;" transform="translate(2.652344 147.397296)scale(0.165 -0.165)">
       <use xlink:href="#ArialMT-53"/>
       <use x="55.615234" xlink:href="#ArialMT-37"/>
      </g>
     </g>
    </g>
    <g id="ytick_3">
     <g id="text_7">
      <!-- 10% -->
      <g style="fill:#262626;" transform="translate(-6.523203 99.889397)scale(0.165 -0.165)">
       <use xlink:href="#ArialMT-49"/>
       <use x="55.615234" xlink:href="#ArialMT-48"/>
       <use x="111.230469" xlink:href="#ArialMT-37"/>
      </g>
     </g>
    </g>
    <g id="ytick_4">
     <g id="text_8">
      <!-- 15% -->
      <g style="fill:#262626;" transform="translate(-6.523203 52.381498)scale(0.165 -0.165)">
       <use xlink:href="#ArialMT-49"/>
       <use x="55.615234" xlink:href="#ArialMT-53"/>
       <use x="111.230469" xlink:href="#ArialMT-37"/>
      </g>
     </g>
    </g>
    <g id="text_9">
     <!-- frequency -->
     <defs>
      <path d="M 8.6875 0 
L 8.6875 45.015625 
L 0.921875 45.015625 
L 0.921875 51.859375 
L 8.6875 51.859375 
L 8.6875 57.375 
Q 8.6875 62.59375 9.625 65.140625 
Q 10.890625 68.5625 14.078125 70.671875 
Q 17.28125 72.796875 23.046875 72.796875 
Q 26.765625 72.796875 31.25 71.921875 
L 29.9375 64.265625 
Q 27.203125 64.75 24.75 64.75 
Q 20.75 64.75 19.09375 63.03125 
Q 17.4375 61.328125 17.4375 56.640625 
L 17.4375 51.859375 
L 27.546875 51.859375 
L 27.546875 45.015625 
L 17.4375 45.015625 
L 17.4375 0 
z
" id="ArialMT-102"/>
      <path d="M 6.5 0 
L 6.5 51.859375 
L 14.40625 51.859375 
L 14.40625 44 
Q 17.4375 49.515625 20 51.265625 
Q 22.5625 53.03125 25.640625 53.03125 
Q 30.078125 53.03125 34.671875 50.203125 
L 31.640625 42.046875 
Q 28.421875 43.953125 25.203125 43.953125 
Q 22.3125 43.953125 20.015625 42.21875 
Q 17.71875 40.484375 16.75 37.40625 
Q 15.28125 32.71875 15.28125 27.15625 
L 15.28125 0 
z
" id="ArialMT-114"/>
      <path d="M 39.65625 -19.875 
L 39.65625 5.515625 
Q 37.59375 2.640625 33.90625 0.734375 
Q 30.21875 -1.171875 26.078125 -1.171875 
Q 16.84375 -1.171875 10.171875 6.203125 
Q 3.515625 13.578125 3.515625 26.421875 
Q 3.515625 34.234375 6.21875 40.421875 
Q 8.9375 46.625 14.078125 49.828125 
Q 19.234375 53.03125 25.390625 53.03125 
Q 35.015625 53.03125 40.53125 44.921875 
L 40.53125 51.859375 
L 48.4375 51.859375 
L 48.4375 -19.875 
z
M 12.546875 26.078125 
Q 12.546875 16.0625 16.75 11.0625 
Q 20.953125 6.0625 26.8125 6.0625 
Q 32.421875 6.0625 36.46875 10.8125 
Q 40.53125 15.578125 40.53125 25.296875 
Q 40.53125 35.640625 36.25 40.859375 
Q 31.984375 46.09375 26.21875 46.09375 
Q 20.515625 46.09375 16.53125 41.234375 
Q 12.546875 36.375 12.546875 26.078125 
z
" id="ArialMT-113"/>
      <path d="M 40.578125 0 
L 40.578125 7.625 
Q 34.515625 -1.171875 24.125 -1.171875 
Q 19.53125 -1.171875 15.546875 0.578125 
Q 11.578125 2.34375 9.640625 5 
Q 7.71875 7.671875 6.9375 11.53125 
Q 6.390625 14.109375 6.390625 19.734375 
L 6.390625 51.859375 
L 15.1875 51.859375 
L 15.1875 23.09375 
Q 15.1875 16.21875 15.71875 13.8125 
Q 16.546875 10.359375 19.234375 8.375 
Q 21.921875 6.390625 25.875 6.390625 
Q 29.828125 6.390625 33.296875 8.421875 
Q 36.765625 10.453125 38.203125 13.9375 
Q 39.65625 17.4375 39.65625 24.078125 
L 39.65625 51.859375 
L 48.4375 51.859375 
L 48.4375 0 
z
" id="ArialMT-117"/>
      <path d="M 6.203125 -19.96875 
L 5.21875 -11.71875 
Q 8.109375 -12.5 10.25 -12.5 
Q 13.1875 -12.5 14.9375 -11.515625 
Q 16.703125 -10.546875 17.828125 -8.796875 
Q 18.65625 -7.46875 20.515625 -2.25 
Q 20.75 -1.515625 21.296875 -0.09375 
L 1.609375 51.859375 
L 11.078125 51.859375 
L 21.875 21.828125 
Q 23.96875 16.109375 25.640625 9.8125 
Q 27.15625 15.875 29.25 21.625 
L 40.328125 51.859375 
L 49.125 51.859375 
L 29.390625 -0.875 
Q 26.21875 -9.421875 24.46875 -12.640625 
Q 22.125 -17 19.09375 -19.015625 
Q 16.0625 -21.046875 11.859375 -21.046875 
Q 9.328125 -21.046875 6.203125 -19.96875 
z
" id="ArialMT-121"/>
     </defs>
     <g style="fill:#262626;" transform="translate(-14.732578 151.3725)rotate(-90)scale(0.2 -0.2)">
      <use xlink:href="#ArialMT-102"/>
      <use x="27.783203" xlink:href="#ArialMT-114"/>
      <use x="61.083984" xlink:href="#ArialMT-101"/>
      <use x="116.699219" xlink:href="#ArialMT-113"/>
      <use x="172.314453" xlink:href="#ArialMT-117"/>
      <use x="227.929688" xlink:href="#ArialMT-101"/>
      <use x="283.544922" xlink:href="#ArialMT-110"/>
      <use x="339.160156" xlink:href="#ArialMT-99"/>
      <use x="389.160156" xlink:href="#ArialMT-121"/>
     </g>
    </g>
   </g>
   <g id="patch_2">
    <path clip-path="url(#pa4a543306f)" d="M 74.856444 189 
L 79.873241 189 
L 79.873241 138.146474 
L 74.856444 138.146474 
z
" style="fill:#39ad48;opacity:0.4;stroke:#ffffff;stroke-linejoin:miter;"/>
   </g>
   <g id="patch_3">
    <path clip-path="url(#pa4a543306f)" d="M 79.873241 189 
L 84.890038 189 
L 84.890038 140.287675 
L 79.873241 140.287675 
z
" style="fill:#39ad48;opacity:0.4;stroke:#ffffff;stroke-linejoin:miter;"/>
   </g>
   <g id="patch_4">
    <path clip-path="url(#pa4a543306f)" d="M 84.890038 189 
L 89.906835 189 
L 89.906835 145.105378 
L 84.890038 145.105378 
z
" style="fill:#39ad48;opacity:0.4;stroke:#ffffff;stroke-linejoin:miter;"/>
   </g>
   <g id="patch_5">
    <path clip-path="url(#pa4a543306f)" d="M 89.906835 189 
L 94.923632 189 
L 94.923632 156.881984 
L 89.906835 156.881984 
z
" style="fill:#39ad48;opacity:0.4;stroke:#ffffff;stroke-linejoin:miter;"/>
   </g>
   <g id="patch_6">
    <path clip-path="url(#pa4a543306f)" d="M 94.923632 189 
L 99.940429 189 
L 99.940429 155.811383 
L 94.923632 155.811383 
z
" style="fill:#39ad48;opacity:0.4;stroke:#ffffff;stroke-linejoin:miter;"/>
   </g>
   <g id="patch_7">
    <path clip-path="url(#pa4a543306f)" d="M 99.940429 189 
L 104.957226 189 
L 104.957226 159.023185 
L 99.940429 159.023185 
z
" style="fill:#39ad48;opacity:0.4;stroke:#ffffff;stroke-linejoin:miter;"/>
   </g>
   <g id="patch_8">
    <path clip-path="url(#pa4a543306f)" d="M 104.957226 189 
L 109.974023 189 
L 109.974023 152.599581 
L 104.957226 152.599581 
z
" style="fill:#39ad48;opacity:0.4;stroke:#ffffff;stroke-linejoin:miter;"/>
   </g>
   <g id="patch_9">
    <path clip-path="url(#pa4a543306f)" d="M 109.974023 189 
L 114.99082 189 
L 114.99082 155.276083 
L 109.974023 155.276083 
z
" style="fill:#39ad48;opacity:0.4;stroke:#ffffff;stroke-linejoin:miter;"/>
   </g>
   <g id="patch_10">
    <path clip-path="url(#pa4a543306f)" d="M 114.99082 189 
L 120.007617 189 
L 120.007617 160.093785 
L 114.99082 160.093785 
z
" style="fill:#39ad48;opacity:0.4;stroke:#ffffff;stroke-linejoin:miter;"/>
   </g>
   <g id="patch_11">
    <path clip-path="url(#pa4a543306f)" d="M 120.007617 189 
L 125.024414 189 
L 125.024414 162.770287 
L 120.007617 162.770287 
z
" style="fill:#39ad48;opacity:0.4;stroke:#ffffff;stroke-linejoin:miter;"/>
   </g>
   <g id="patch_12">
    <path clip-path="url(#pa4a543306f)" d="M 125.024414 189 
L 130.041211 189 
L 130.041211 154.740783 
L 125.024414 154.740783 
z
" style="fill:#39ad48;opacity:0.4;stroke:#ffffff;stroke-linejoin:miter;"/>
   </g>
   <g id="patch_13">
    <path clip-path="url(#pa4a543306f)" d="M 130.041211 189 
L 135.058008 189 
L 135.058008 155.811383 
L 130.041211 155.811383 
z
" style="fill:#39ad48;opacity:0.4;stroke:#ffffff;stroke-linejoin:miter;"/>
   </g>
   <g id="patch_14">
    <path clip-path="url(#pa4a543306f)" d="M 135.058008 189 
L 140.074805 189 
L 140.074805 153.670182 
L 135.058008 153.670182 
z
" style="fill:#39ad48;opacity:0.4;stroke:#ffffff;stroke-linejoin:miter;"/>
   </g>
   <g id="patch_15">
    <path clip-path="url(#pa4a543306f)" d="M 140.074805 189 
L 145.091602 189 
L 145.091602 155.276083 
L 140.074805 155.276083 
z
" style="fill:#39ad48;opacity:0.4;stroke:#ffffff;stroke-linejoin:miter;"/>
   </g>
   <g id="patch_16">
    <path clip-path="url(#pa4a543306f)" d="M 145.091602 189 
L 150.108398 189 
L 150.108398 154.740783 
L 145.091602 154.740783 
z
" style="fill:#39ad48;opacity:0.4;stroke:#ffffff;stroke-linejoin:miter;"/>
   </g>
   <g id="patch_17">
    <path clip-path="url(#pa4a543306f)" d="M 150.108398 189 
L 155.125195 189 
L 155.125195 157.417284 
L 150.108398 157.417284 
z
" style="fill:#39ad48;opacity:0.4;stroke:#ffffff;stroke-linejoin:miter;"/>
   </g>
   <g id="patch_18">
    <path clip-path="url(#pa4a543306f)" d="M 155.125195 189 
L 160.141992 189 
L 160.141992 153.670182 
L 155.125195 153.670182 
z
" style="fill:#39ad48;opacity:0.4;stroke:#ffffff;stroke-linejoin:miter;"/>
   </g>
   <g id="patch_19">
    <path clip-path="url(#pa4a543306f)" d="M 160.141992 189 
L 165.158789 189 
L 165.158789 152.599581 
L 160.141992 152.599581 
z
" style="fill:#39ad48;opacity:0.4;stroke:#ffffff;stroke-linejoin:miter;"/>
   </g>
   <g id="patch_20">
    <path clip-path="url(#pa4a543306f)" d="M 165.158789 189 
L 170.175586 189 
L 170.175586 152.599581 
L 165.158789 152.599581 
z
" style="fill:#39ad48;opacity:0.4;stroke:#ffffff;stroke-linejoin:miter;"/>
   </g>
   <g id="patch_21">
    <path clip-path="url(#pa4a543306f)" d="M 170.175586 189 
L 175.192383 189 
L 175.192383 163.305587 
L 170.175586 163.305587 
z
" style="fill:#39ad48;opacity:0.4;stroke:#ffffff;stroke-linejoin:miter;"/>
   </g>
   <g id="patch_22">
    <path clip-path="url(#pa4a543306f)" d="M 175.192383 189 
L 180.20918 189 
L 180.20918 157.952584 
L 175.192383 157.952584 
z
" style="fill:#39ad48;opacity:0.4;stroke:#ffffff;stroke-linejoin:miter;"/>
   </g>
   <g id="patch_23">
    <path clip-path="url(#pa4a543306f)" d="M 180.20918 189 
L 185.225977 189 
L 185.225977 156.881984 
L 180.20918 156.881984 
z
" style="fill:#39ad48;opacity:0.4;stroke:#ffffff;stroke-linejoin:miter;"/>
   </g>
   <g id="patch_24">
    <path clip-path="url(#pa4a543306f)" d="M 185.225977 189 
L 190.242774 189 
L 190.242774 158.487884 
L 185.225977 158.487884 
z
" style="fill:#39ad48;opacity:0.4;stroke:#ffffff;stroke-linejoin:miter;"/>
   </g>
   <g id="patch_25">
    <path clip-path="url(#pa4a543306f)" d="M 190.242774 189 
L 195.259571 189 
L 195.259571 162.234986 
L 190.242774 162.234986 
z
" style="fill:#39ad48;opacity:0.4;stroke:#ffffff;stroke-linejoin:miter;"/>
   </g>
   <g id="patch_26">
    <path clip-path="url(#pa4a543306f)" d="M 195.259571 189 
L 200.276368 189 
L 200.276368 164.911488 
L 195.259571 164.911488 
z
" style="fill:#39ad48;opacity:0.4;stroke:#ffffff;stroke-linejoin:miter;"/>
   </g>
   <g id="patch_27">
    <path clip-path="url(#pa4a543306f)" d="M 200.276368 189 
L 205.293165 189 
L 205.293165 159.558485 
L 200.276368 159.558485 
z
" style="fill:#39ad48;opacity:0.4;stroke:#ffffff;stroke-linejoin:miter;"/>
   </g>
   <g id="patch_28">
    <path clip-path="url(#pa4a543306f)" d="M 205.293165 189 
L 210.309962 189 
L 210.309962 164.376187 
L 205.293165 164.376187 
z
" style="fill:#39ad48;opacity:0.4;stroke:#ffffff;stroke-linejoin:miter;"/>
   </g>
   <g id="patch_29">
    <path clip-path="url(#pa4a543306f)" d="M 210.309962 189 
L 215.326759 189 
L 215.326759 164.376187 
L 210.309962 164.376187 
z
" style="fill:#39ad48;opacity:0.4;stroke:#ffffff;stroke-linejoin:miter;"/>
   </g>
   <g id="patch_30">
    <path clip-path="url(#pa4a543306f)" d="M 215.326759 189 
L 220.343556 189 
L 220.343556 162.234986 
L 215.326759 162.234986 
z
" style="fill:#39ad48;opacity:0.4;stroke:#ffffff;stroke-linejoin:miter;"/>
   </g>
   <g id="patch_31">
    <path clip-path="url(#pa4a543306f)" d="M 160.141992 189 
L 165.158789 189 
L 165.158789 170.727731 
L 160.141992 170.727731 
z
" style="fill:#d9544d;opacity:0.4;stroke:#ffffff;stroke-linejoin:miter;"/>
   </g>
   <g id="patch_32">
    <path clip-path="url(#pa4a543306f)" d="M 165.158789 189 
L 170.175586 189 
L 170.175586 161.591597 
L 165.158789 161.591597 
z
" style="fill:#d9544d;opacity:0.4;stroke:#ffffff;stroke-linejoin:miter;"/>
   </g>
   <g id="patch_33">
    <path clip-path="url(#pa4a543306f)" d="M 170.175586 189 
L 175.192383 189 
L 175.192383 161.591597 
L 170.175586 161.591597 
z
" style="fill:#d9544d;opacity:0.4;stroke:#ffffff;stroke-linejoin:miter;"/>
   </g>
   <g id="patch_34">
    <path clip-path="url(#pa4a543306f)" d="M 175.192383 189 
L 180.20918 189 
L 180.20918 161.591597 
L 175.192383 161.591597 
z
" style="fill:#d9544d;opacity:0.4;stroke:#ffffff;stroke-linejoin:miter;"/>
   </g>
   <g id="patch_35">
    <path clip-path="url(#pa4a543306f)" d="M 180.20918 189 
L 185.225977 189 
L 185.225977 143.319328 
L 180.20918 143.319328 
z
" style="fill:#d9544d;opacity:0.4;stroke:#ffffff;stroke-linejoin:miter;"/>
   </g>
   <g id="patch_36">
    <path clip-path="url(#pa4a543306f)" d="M 185.225977 189 
L 190.242774 189 
L 190.242774 115.910924 
L 185.225977 115.910924 
z
" style="fill:#d9544d;opacity:0.4;stroke:#ffffff;stroke-linejoin:miter;"/>
   </g>
   <g id="patch_37">
    <path clip-path="url(#pa4a543306f)" d="M 190.242774 189 
L 195.259571 189 
L 195.259571 79.366387 
L 190.242774 79.366387 
z
" style="fill:#d9544d;opacity:0.4;stroke:#ffffff;stroke-linejoin:miter;"/>
   </g>
   <g id="patch_38">
    <path clip-path="url(#pa4a543306f)" d="M 195.259571 189 
L 200.276368 189 
L 200.276368 97.638655 
L 195.259571 97.638655 
z
" style="fill:#d9544d;opacity:0.4;stroke:#ffffff;stroke-linejoin:miter;"/>
   </g>
   <g id="patch_39">
    <path clip-path="url(#pa4a543306f)" d="M 200.276368 189 
L 205.293165 189 
L 205.293165 51.957983 
L 200.276368 51.957983 
z
" style="fill:#d9544d;opacity:0.4;stroke:#ffffff;stroke-linejoin:miter;"/>
   </g>
   <g id="patch_40">
    <path clip-path="url(#pa4a543306f)" d="M 205.293165 189 
L 210.309962 189 
L 210.309962 33.685714 
L 205.293165 33.685714 
z
" style="fill:#d9544d;opacity:0.4;stroke:#ffffff;stroke-linejoin:miter;"/>
   </g>
   <g id="patch_41">
    <path clip-path="url(#pa4a543306f)" d="M 210.309962 189 
L 215.326759 189 
L 215.326759 88.502521 
L 210.309962 88.502521 
z
" style="fill:#d9544d;opacity:0.4;stroke:#ffffff;stroke-linejoin:miter;"/>
   </g>
   <g id="patch_42">
    <path clip-path="url(#pa4a543306f)" d="M 215.326759 189 
L 220.343556 189 
L 220.343556 51.957983 
L 215.326759 51.957983 
z
" style="fill:#d9544d;opacity:0.4;stroke:#ffffff;stroke-linejoin:miter;"/>
   </g>
   <g id="line2d_1">
    <path clip-path="url(#pa4a543306f)" d="M 46.145455 188.894087 
L 48.195041 188.798545 
L 50.244628 188.63288 
L 52.294215 188.358761 
L 54.343802 187.925967 
L 56.393388 187.274002 
L 58.442975 186.337048 
L 60.492562 185.052645 
L 62.542149 183.373468 
L 64.591736 181.280326 
L 66.641322 178.793361 
L 68.690909 175.978097 
L 70.740496 172.943641 
L 72.790083 169.832114 
L 74.839669 166.800754 
L 76.889256 164.000314 
L 78.938843 161.554515 
L 80.98843 159.545014 
L 83.038017 158.004699 
L 85.087603 156.919759 
L 87.13719 156.238775 
L 89.186777 155.885794 
L 91.236364 155.774156 
L 93.28595 155.818587 
L 95.335537 155.94425 
L 97.385124 156.092513 
L 99.434711 156.223766 
L 101.484298 156.31779 
L 103.533884 156.372003 
L 105.583471 156.397784 
L 107.633058 156.415133 
L 109.682645 156.446245 
L 111.732231 156.508996 
L 113.781818 156.611628 
L 115.831405 156.749824 
L 117.880992 156.906934 
L 119.930579 157.057256 
L 121.980165 157.171553 
L 124.029752 157.223354 
L 126.079339 157.194519 
L 128.128926 157.078835 
L 130.178512 156.883005 
L 132.228099 156.625081 
L 134.277686 156.330887 
L 136.327273 156.029299 
L 138.37686 155.747329 
L 140.426446 155.505897 
L 142.476033 155.316983 
L 144.52562 155.182663 
L 146.575207 155.09617 
L 148.624793 155.044814 
L 150.67438 155.014174 
L 152.723967 154.99265 
L 154.773554 154.975314 
L 156.82314 154.966072 
L 158.872727 154.977499 
L 160.922314 155.028265 
L 162.971901 155.138698 
L 165.021488 155.325581 
L 167.071074 155.597538 
L 169.120661 155.952268 
L 171.170248 156.376435 
L 173.219835 156.848246 
L 175.269421 157.342036 
L 177.319008 157.833562 
L 179.368595 158.304576 
L 181.418182 158.745505 
L 183.467769 159.155686 
L 185.517355 159.541375 
L 187.566942 159.912371 
L 189.616529 160.278453 
L 191.666116 160.646806 
L 193.715702 161.021206 
L 195.765289 161.403233 
L 197.814876 161.795134 
L 199.864463 162.203551 
L 201.91405 162.643064 
L 203.963636 163.138523 
L 206.013223 163.725303 
L 208.06281 164.446948 
L 210.112397 165.350071 
L 212.161983 166.476914 
L 214.21157 167.856573 
L 216.261157 169.496527 
L 218.310744 171.376489 
L 220.360331 173.446498 
L 222.409917 175.630446 
L 224.459504 177.834941 
L 226.509091 179.96192 
L 228.558678 181.922297 
L 230.608264 183.647595 
L 232.657851 185.097104 
L 234.707438 186.259442 
L 236.757025 187.148949 
L 238.806612 187.79854 
L 240.856198 188.251217 
L 242.905785 188.552229 
L 244.955372 188.743227 
L 247.004959 188.858872 
L 249.054545 188.925688 
" style="fill:none;stroke:#39ad48;stroke-linecap:round;stroke-width:2.5;"/>
   </g>
   <g id="line2d_2">
    <path clip-path="url(#pa4a543306f)" d="M 142.473833 188.958073 
L 143.438862 188.931199 
L 144.403892 188.889755 
L 145.368921 188.827447 
L 146.33395 188.736111 
L 147.298979 188.605537 
L 148.264008 188.42346 
L 149.229037 188.175761 
L 150.194066 187.846967 
L 151.159095 187.421063 
L 152.124124 186.882637 
L 153.089154 186.21831 
L 154.054183 185.418338 
L 155.019212 184.478246 
L 155.984241 183.400259 
L 156.94927 182.194321 
L 157.914299 180.878451 
L 158.879328 179.478264 
L 159.844357 178.025549 
L 160.809386 176.555947 
L 161.774416 175.105891 
L 162.739445 173.709134 
L 163.704474 172.393262 
L 164.669503 171.176647 
L 165.634532 170.066232 
L 166.599561 169.056414 
L 167.56459 168.129107 
L 168.529619 167.254896 
L 169.494648 166.395039 
L 170.459678 165.503995 
L 171.424707 164.532219 
L 172.389736 163.429023 
L 173.354765 162.145472 
L 174.319794 160.637345 
L 175.284823 158.868216 
L 176.249852 156.812605 
L 177.214881 154.458973 
L 178.179911 151.812108 
L 179.14494 148.894333 
L 180.109969 145.744942 
L 181.074998 142.41751 
L 182.040027 138.975059 
L 183.005056 135.483574 
L 183.970085 132.004771 
L 184.935114 128.589337 
L 185.900143 125.271827 
L 186.865173 122.068148 
L 187.830202 118.976018 
L 188.795231 115.978158 
L 189.76026 113.047436 
L 190.725289 110.152802 
L 191.690318 107.264863 
L 192.655347 104.360182 
L 193.620376 101.423853 
L 194.585405 98.450449 
L 195.550435 95.443808 
L 196.515464 92.416337 
L 197.480493 89.388426 
L 198.445522 86.388268 
L 199.410551 83.452026 
L 200.37558 80.623916 
L 201.340609 77.955663 
L 202.305638 75.504788 
L 203.270667 73.331519 
L 204.235697 71.494494 
L 205.200726 70.045854 
L 206.165755 69.026668 
L 207.130784 68.463733 
L 208.095813 68.368632 
L 209.060842 68.73961 
L 210.025871 69.566203 
L 210.9909 70.835964 
L 211.955929 72.54203 
L 212.920959 74.68988 
L 213.885988 77.301545 
L 214.851017 80.415804 
L 215.816046 84.083565 
L 216.781075 88.358533 
L 217.746104 93.284352 
L 218.711133 98.880315 
L 219.676162 105.128323 
L 220.641191 111.963805 
L 221.606221 119.272786 
L 222.57125 126.896183 
L 223.536279 134.641072 
L 224.501308 142.297312 
L 225.466337 149.656894 
L 226.431366 156.532946 
L 227.396395 162.775482 
L 228.361424 168.281787 
L 229.326453 173.000406 
L 230.291483 176.928913 
L 231.256512 180.106642 
L 232.221541 182.604175 
L 233.18657 184.511592 
L 234.151599 185.92725 
L 235.116628 186.948396 
L 236.081657 187.664332 
L 237.046686 188.15226 
L 238.011715 188.475534 
" style="fill:none;stroke:#d9544d;stroke-linecap:round;stroke-width:2.5;"/>
   </g>
   <g id="legend_1">
    <g id="patch_43">
     <path d="M 47.55 85.799531 
L 170.975156 85.799531 
Q 174.275156 85.799531 174.275156 82.499531 
L 174.275156 37.47 
Q 174.275156 34.17 170.975156 34.17 
L 47.55 34.17 
Q 44.25 34.17 44.25 37.47 
L 44.25 82.499531 
Q 44.25 85.799531 47.55 85.799531 
z
" style="fill:#ffffff;opacity:0.8;stroke:#cccccc;stroke-linejoin:miter;"/>
    </g>
    <g id="patch_44">
     <path d="M 50.85 52.580391 
L 83.85 52.580391 
L 83.85 41.030391 
L 50.85 41.030391 
z
" style="fill:#39ad48;opacity:0.4;stroke:#ffffff;stroke-linejoin:miter;"/>
    </g>
    <g id="text_10">
     <!-- non-fraud -->
     <defs>
      <path d="M 3.171875 21.484375 
L 3.171875 30.328125 
L 30.171875 30.328125 
L 30.171875 21.484375 
z
" id="ArialMT-45"/>
     </defs>
     <g style="fill:#262626;" transform="translate(97.05 52.580391)scale(0.165 -0.165)">
      <use xlink:href="#ArialMT-110"/>
      <use x="55.615234" xlink:href="#ArialMT-111"/>
      <use x="111.230469" xlink:href="#ArialMT-110"/>
      <use x="166.845703" xlink:href="#ArialMT-45"/>
      <use x="200.146484" xlink:href="#ArialMT-102"/>
      <use x="227.929688" xlink:href="#ArialMT-114"/>
      <use x="261.230469" xlink:href="#ArialMT-97"/>
      <use x="316.845703" xlink:href="#ArialMT-117"/>
      <use x="372.460938" xlink:href="#ArialMT-100"/>
     </g>
    </g>
    <g id="patch_45">
     <path d="M 50.85 75.920156 
L 83.85 75.920156 
L 83.85 64.370156 
L 50.85 64.370156 
z
" style="fill:#d9544d;opacity:0.4;stroke:#ffffff;stroke-linejoin:miter;"/>
    </g>
    <g id="text_11">
     <!-- fraud -->
     <g style="fill:#262626;" transform="translate(97.05 75.920156)scale(0.165 -0.165)">
      <use xlink:href="#ArialMT-102"/>
      <use x="27.783203" xlink:href="#ArialMT-114"/>
      <use x="61.083984" xlink:href="#ArialMT-97"/>
      <use x="116.699219" xlink:href="#ArialMT-117"/>
      <use x="172.314453" xlink:href="#ArialMT-100"/>
     </g>
    </g>
   </g>
  </g>
 </g>
 <defs>
  <clipPath id="pa4a543306f">
   <rect height="163.08" width="223.2" x="36" y="25.92"/>
  </clipPath>
 </defs>
</svg>
